<?xml version="1.0" encoding="utf-8"?>
<!-- Svg Vector Icons : http://www.onlinewebfonts.com/icon -->
<!DOCTYPE svg PUBLIC "-//W3C//DTD SVG 1.1//EN" "http://www.w3.org/Graphics/SVG/1.1/DTD/svg11.dtd">
<svg fill="white" version="1.1" xmlns="http://www.w3.org/2000/svg" xmlns:xlink="http://www.w3.org/1999/xlink" x="0px" y="0px" viewBox="0 0 1000 1000" enable-background="new 0 0 1000 1000" xml:space="preserve">
<metadata> Svg Vector Icons : http://www.onlinewebfonts.com/icon </metadata>
<g><path d="M819.7,420.9h-70.6V257.7C749.1,121.1,637.4,10,500,10c-137.4,0-249.2,111.1-249.2,247.7v163.1h-70.5c-34,0-61.5,27.4-61.5,61.2v446.7c0,33.9,27.5,61.3,61.5,61.3h639.4c34,0,61.5-27.4,61.5-61.3V482.1C881.2,448.3,853.7,420.9,819.7,420.9L819.7,420.9z M534.6,717.1v97.5c0,4.4-3.6,8-8.1,8h-52.9c-4.5,0-8.1-3.7-8.1-8v-97.5c-24.9-12.6-42.1-38-42.1-67.7c0-42,34.3-76.2,76.6-76.2c42.3,0,76.6,34.2,76.6,76.2C576.7,679.1,559.4,704.4,534.6,717.1L534.6,717.1z M653.5,420.9h-307V261.8c0-84.2,68.9-152.7,153.6-152.7s153.4,68.5,153.4,152.7V420.9L653.5,420.9z"/></g>
</svg>
